<?xml version="1.0" encoding="utf-8"?>
<!-- Generator: Adobe Illustrator 27.7.0, SVG Export Plug-In . SVG Version: 6.00 Build 0)  -->
<svg version="1.1" id="Layer_1" xmlns="http://www.w3.org/2000/svg" xmlns:xlink="http://www.w3.org/1999/xlink" x="0px" y="0px"
	 viewBox="0 0 512 512" style="enable-background:new 0 0 512 512;" xml:space="preserve">
<style type="text/css">
	.st0{fill:#00725F;}
	.st1{fill:#F7F6F4;}
</style>
<g>
	<path class="st0" d="M472.1,511.7h-432c-22.1,0-40-17.9-40-40l0-432c0-22.1,17.9-40,40-40l432,0c22.1,0,40,17.9,40,40v432
		C512.1,493.8,494.1,511.7,472.1,511.7z"/>
	<g>
		<path class="st1" d="M364.4,320.6c-42.6,63.7-22.9,33.3-81.3,114.3c-0.6,0.8-6.2-10-5.7-10.9c16.8-28.4,75.6-112.6,72.6-162.4
			c0,0-1.1-32.6-33.1-61.9c-15.9-14.5-25.3-34.8-25.3-56.3c0-12.7,2.9-27.2,11.1-42.6c2.4-4.4,4.7-8.4,7-12c0.3-0.5-0.2-1-0.7-0.8
			l0,0c-11.3,4.2-82.5,33.3-96.7,83.4c-0.1,0.4-0.5,0.5-0.8,0.3l-7.6-5.2c-0.2-0.1-0.3-0.3-0.2-0.6c0.9-4.8,11.5-56.8,72.5-77.3
			c0,0,29.3-8.9,59.7-29.8c0,0,0.1,0,0.1,0c0.7-0.3,9.1-3.8,14.2-1.3c0.6,0.3,0.7,0.8,0.4,1.5c0,0,0,0,0,0
			c-2.5,1.8-7.4,5.7-12.9,11.9c0,0,0,0,0,0c-11.4,12.7-25.3,34.8-26.1,68.1c0,0-0.7,35,43.5,65.7
			C354.9,204.8,413.3,247.4,364.4,320.6z"/>
		<path class="st1" d="M72.8,121.1c0,0,60.5,123.2,119.1,140.5c0,0,20.8,0.1,15.1-15.4c0,0-94.5-62.8-121-131.3
			C86.1,115,70.5,107.9,72.8,121.1z"/>
		<path class="st1" d="M217.2,281.4c0,0,44.3,129.9,15.1,183.6c0,0-14.6,14.8-21.6-0.2c0,0,22.4-111.2-7.3-178.3
			C203.5,286.4,209.5,270.3,217.2,281.4z"/>
		
			<ellipse transform="matrix(0.6753 -0.7375 0.7375 0.6753 -31.9396 239.6133)" class="st1" cx="256.2" cy="156.1" rx="20.8" ry="16.5"/>
	</g>
</g>
</svg>
